<svg width="400" height="400" viewBox="0 0 400 400" fill="none" xmlns="http://www.w3.org/2000/svg">
  <!-- Background -->
  <circle cx="200" cy="200" r="180" fill="#EDE9FE" opacity="0.5"/>
  
  <!-- Meeting Table -->
  <ellipse cx="200" cy="250" rx="150" ry="60" fill="#DDD6FE"/>
  <ellipse cx="200" cy="250" rx="130" ry="50" fill="#EDE9FE"/>
  
  <!-- Laptop -->
  <g transform="translate(140, 210)">
    <!-- Base -->
    <rect x="0" y="0" width="80" height="10" rx="2" fill="#4C1D95"/>
    <rect x="35" y="4" width="10" height="2" rx="1" fill="#8B5CF6"/>
    
    <!-- Screen -->
    <g transform="rotate(-10)">
      <rect x="-25" y="-60" width="80" height="60" rx="4" fill="#4C1D95"/>
      <rect x="-21" y="-56" width="72" height="52" rx="2" fill="#5B21B6"/>
      <rect x="-15" y="-50" width="25" height="8" rx="2" fill="#A78BFA"/>
      <rect x="-15" y="-38" width="60" height="4" rx="2" fill="#A78BFA"/>
      <rect x="-15" y="-30" width="40" height="4" rx="2" fill="#A78BFA"/>
      <rect x="-15" y="-22" width="50" height="4" rx="2" fill="#A78BFA"/>
    </g>
  </g>
  
  <!-- Charts -->
  <g transform="translate(220, 180)">
    <!-- Chart Paper -->
    <rect x="0" y="0" width="70" height="90" fill="white" rx="4"/>
    
    <!-- Chart Elements -->
    <rect x="10" y="10" width="30" height="4" rx="2" fill="#1E40AF"/>
    <rect x="10" y="18" width="50" height="2" rx="1" fill="#D1D5DB"/>
    
    <!-- Bar Chart -->
    <rect x="10" y="30" width="8" height="30" rx="1" fill="#93C5FD"/>
    <rect x="24" y="40" width="8" height="20" rx="1" fill="#60A5FA"/>
    <rect x="38" y="25" width="8" height="35" rx="1" fill="#3B82F6"/>
    <rect x="52" y="35" width="8" height="25" rx="1" fill="#2563EB"/>
    
    <!-- Chart Legend -->
    <rect x="10" y="70" width="50" height="2" rx="1" fill="#D1D5DB"/>
    <rect x="10" y="76" width="30" height="2" rx="1" fill="#D1D5DB"/>
  </g>
  
  <!-- Strategy Board -->
  <g transform="translate(80, 170)">
    <!-- Board -->
    <rect x="0" y="0" width="80" height="60" rx="2" fill="white"/>
    
    <!-- Sticky Notes -->
    <rect x="5" y="5" width="20" height="20" rx="2" fill="#FDE68A"/>
    <rect x="8" y="10" width="14" height="2" rx="1" fill="#F59E0B"/>
    <rect x="8" y="14" width="10" height="2" rx="1" fill="#F59E0B"/>
    
    <rect x="30" y="5" width="20" height="20" rx="2" fill="#A7F3D0"/>
    <rect x="33" y="10" width="14" height="2" rx="1" fill="#059669"/>
    <rect x="33" y="14" width="10" height="2" rx="1" fill="#059669"/>
    
    <rect x="55" y="5" width="20" height="20" rx="2" fill="#FBCFE8"/>
    <rect x="58" y="10" width="14" height="2" rx="1" fill="#DB2777"/>
    <rect x="58" y="14" width="10" height="2" rx="1" fill="#DB2777"/>
    
    <!-- Connection Lines -->
    <line x1="15" y1="30" x2="40" y2="40" stroke="#6B7280" stroke-width="1" stroke-dasharray="2,2"/>
    <line x1="40" y1="30" x2="65" y2="40" stroke="#6B7280" stroke-width="1" stroke-dasharray="2,2"/>
    
    <!-- Process Boxes -->
    <rect x="10" y="35" width="60" height="8" rx="2" fill="#93C5FD"/>
    <rect x="20" y="48" width="40" height="8" rx="2" fill="#60A5FA"/>
  </g>
  
  <!-- People silhouettes -->
  <g>
    <!-- Person 1 -->
    <circle cx="150" cy="300" r="12" fill="#7C3AED"/>
    <rect x="142" y="314" width="16" height="20" rx="6" fill="#7C3AED"/>
    
    <!-- Person 2 -->
    <circle cx="200" cy="290" r="12" fill="#2563EB"/>
    <rect x="192" y="304" width="16" height="20" rx="6" fill="#2563EB"/>
    
    <!-- Person 3 -->
    <circle cx="250" cy="300" r="12" fill="#DB2777"/>
    <rect x="242" y="314" width="16" height="20" rx="6" fill="#DB2777"/>
  </g>
  
  <!-- Floating Elements -->
  <g>
    <!-- Magnifying Glass -->
    <circle cx="310" cy="100" r="15" fill="white" stroke="#6B7280" stroke-width="2"/>
    <line x1="320" y1="110" x2="335" y2="125" stroke="#6B7280" stroke-width="3"/>
    
    <!-- Light Bulb -->
    <g transform="translate(90, 110)">
      <path d="M0 20 C0 8 16 8 16 20 L16 25 L0 25 Z" fill="#FBBF24"/>
      <rect x="3" y="25" width="10" height="6" rx="1" fill="#F59E0B"/>
      
      <!-- Animated Light Rays -->
      <line x1="8" y1="0" x2="8" y2="5" stroke="#FBBF24" stroke-width="2">
        <animate attributeName="opacity" values="0.4;1;0.4" dur="2s" repeatCount="indefinite"/>
      </line>
      <line x1="0" y1="10" x2="5" y2="10" stroke="#FBBF24" stroke-width="2">
        <animate attributeName="opacity" values="0.4;1;0.4" dur="2s" repeatCount="indefinite" begin="0.2s"/>
      </line>
      <line x1="16" y1="10" x2="21" y2="10" stroke="#FBBF24" stroke-width="2">
        <animate attributeName="opacity" values="0.4;1;0.4" dur="2s" repeatCount="indefinite" begin="0.4s"/>
      </line>
    </g>
    
    <!-- Puzzle Piece -->
    <path d="M160 70 L170 70 C170 65 180 65 180 70 L190 70 L190 90 L180 90 C180 95 170 95 170 90 L160 90 Z" fill="#3B82F6">
      <animate attributeName="transform" 
               attributeType="XML" 
               type="rotate"
               from="0 175 80"
               to="10 175 80"
               dur="3s"
               repeatCount="indefinite"
               additive="sum"
               fill="freeze" />
    </path>
    
    <!-- Floating Gears -->
    <g transform="translate(250, 60)">
      <circle cx="0" cy="0" r="15" fill="#9CA3AF"/>
      <circle cx="0" cy="0" r="5" fill="#6B7280"/>
      <rect x="-2" y="-15" width="4" height="10" rx="2" fill="#6B7280"/>
      <rect x="-2" y="5" width="4" height="10" rx="2" fill="#6B7280"/>
      <rect x="-15" y="-2" width="10" height="4" rx="2" fill="#6B7280"/>
      <rect x="5" y="-2" width="10" height="4" rx="2" fill="#6B7280"/>
      
      <animateTransform attributeName="transform"
                          attributeType="XML"
                          type="rotate"
                          from="0"
                          to="360"
                          dur="20s"
                          repeatCount="indefinite"/>
    </g>
    
    <g transform="translate(270, 80)">
      <circle cx="0" cy="0" r="10" fill="#9CA3AF"/>
      <circle cx="0" cy="0" r="3" fill="#6B7280"/>
      <rect x="-1.5" y="-10" width="3" height="7" rx="1.5" fill="#6B7280"/>
      <rect x="-1.5" y="3" width="3" height="7" rx="1.5" fill="#6B7280"/>
      <rect x="-10" y="-1.5" width="7" height="3" rx="1.5" fill="#6B7280"/>
      <rect x="3" y="-1.5" width="7" height="3" rx="1.5" fill="#6B7280"/>
      
      <animateTransform attributeName="transform"
                          attributeType="XML"
                          type="rotate"
                          from="360"
                          to="0"
                          dur="15s"
                          repeatCount="indefinite"/>
    </g>
  </g>
</svg>