<svg width="400" height="400" viewBox="0 0 400 400" fill="none" xmlns="http://www.w3.org/2000/svg">
  <!-- Background Circle -->
  <circle cx="200" cy="200" r="180" fill="#EEF2FF" opacity="0.5"/>
  
  <!-- Graduate Cap -->
  <g transform="translate(100, 80) scale(0.8)">
    <rect x="60" y="80" width="180" height="36" rx="18" fill="#4F46E5"/>
    <path d="M150 40 L250 100 L150 160 L50 100 Z" fill="#818CF8"/>
    <circle cx="150" cy="100" r="10" fill="#C7D2FE"/>
    <rect x="145" y="160" width="10" height="80" fill="#4F46E5"/>
    <path d="M120 220 L180 220 L170 240 L130 240 Z" fill="#818CF8"/>
    
    <!-- Animated Tassel -->
    <path d="M145 160 Q120 200 130 240" stroke="#4F46E5" stroke-width="3" fill="none">
      <animate attributeName="d" 
               values="M145 160 Q120 200 130 240; M145 160 Q140 200 130 240; M145 160 Q120 200 130 240" 
               dur="3s" 
               repeatCount="indefinite"/>
    </path>
    <circle cx="130" cy="240" r="5" fill="#4F46E5">
      <animate attributeName="cy" 
               values="240; 242; 240" 
               dur="3s" 
               repeatCount="indefinite"/>
    </circle>
  </g>
  
  <!-- Books -->
  <g transform="translate(220, 200)">
    <rect x="0" y="0" width="80" height="120" rx="5" fill="#F472B6" transform="skew(-10deg)"/>
    <rect x="4" y="10" width="72" height="100" rx="2" fill="#FBCFE8" transform="skew(-10deg)"/>
    <rect x="-15" y="15" width="80" height="120" rx="5" fill="#60A5FA" transform="skew(-10deg)"/>
    <rect x="-11" y="25" width="72" height="100" rx="2" fill="#DBEAFE" transform="skew(-10deg)"/>
    <rect x="-30" y="30" width="80" height="120" rx="5" fill="#34D399" transform="skew(-10deg)"/>
    <rect x="-26" y="40" width="72" height="100" rx="2" fill="#A7F3D0" transform="skew(-10deg)"/>
  </g>
  
  <!-- Pencil -->
  <g transform="translate(100, 220) rotate(45)">
    <rect x="0" y="0" width="130" height="15" rx="2" fill="#FBBF24"/>
    <rect x="0" y="0" width="20" height="15" rx="2" fill="#92400E"/>
    <path d="M130 0 L140 7.5 L130 15 Z" fill="#78350F"/>
    
    <!-- Animated Pencil Shimmer -->
    <rect x="20" y="6" width="40" height="3" rx="1" fill="white" opacity="0.6">
      <animate attributeName="x" 
               values="20; 120; 20" 
               dur="3s" 
               repeatCount="indefinite"/>
    </rect>
  </g>
  
  <!-- Floating bubbles -->
  <circle cx="120" cy="150" r="10" fill="#F472B6" opacity="0.6">
    <animate attributeName="cy" 
             values="150; 140; 150" 
             dur="4s" 
             repeatCount="indefinite"/>
  </circle>
  
  <circle cx="300" cy="140" r="8" fill="#60A5FA" opacity="0.6">
    <animate attributeName="cy" 
             values="140; 130; 140" 
             dur="3.5s" 
             repeatCount="indefinite"/>
  </circle>
  
  <circle cx="320" cy="100" r="6" fill="#34D399" opacity="0.6">
    <animate attributeName="cy" 
             values="100; 92; 100" 
             dur="3s" 
             repeatCount="indefinite"/>
  </circle>
  
  <circle cx="140" cy="80" r="7" fill="#FBBF24" opacity="0.6">
    <animate attributeName="cy" 
             values="80; 72; 80" 
             dur="4.5s" 
             repeatCount="indefinite"/>
  </circle>
  
  <!-- Certificate -->
  <g transform="translate(50, 300)">
    <rect x="0" y="0" width="80" height="60" rx="5" fill="white" stroke="#D1D5DB" stroke-width="2"/>
    <rect x="10" y="10" width="60" height="5" rx="2" fill="#6B7280"/>
    <rect x="10" y="20" width="40" height="5" rx="2" fill="#6B7280"/>
    <rect x="10" y="35" width="60" height="5" rx="2" fill="#D1D5DB"/>
    <rect x="10" y="45" width="40" height="5" rx="2" fill="#D1D5DB"/>
    <circle cx="70" cy="40" r="10" fill="#FBBF24" opacity="0.8"/>
    <path d="M70 34 L73 40 L70 46 L67 40 Z" fill="#F59E0B"/>
  </g>
</svg>