<svg width="1440" height="320" viewBox="0 0 1440 320" fill="none" xmlns="http://www.w3.org/2000/svg" preserveAspectRatio="none">
  <path fill-opacity="0.2" fill="#FFFFFF" d="M0,192L48,181.3C96,171,192,149,288,149.3C384,149,480,171,576,197.3C672,224,768,256,864,240C960,224,1056,160,1152,138.7C1248,117,1344,139,1392,149.3L1440,160L1440,320L1392,320C1344,320,1248,320,1152,320C1056,320,960,320,864,320C768,320,672,320,576,320C480,320,384,320,288,320C192,320,96,320,48,320L0,320Z">
    <animate 
      attributeName="d" 
      dur="10s"
      repeatCount="indefinite"
      values="
        M0,192L48,181.3C96,171,192,149,288,149.3C384,149,480,171,576,197.3C672,224,768,256,864,240C960,224,1056,160,1152,138.7C1248,117,1344,139,1392,149.3L1440,160L1440,320L1392,320C1344,320,1248,320,1152,320C1056,320,960,320,864,320C768,320,672,320,576,320C480,320,384,320,288,320C192,320,96,320,48,320L0,320Z;
        
        M0,160L48,170.7C96,181,192,203,288,202.7C384,203,480,181,576,154.7C672,128,768,96,864,112C960,128,1056,192,1152,213.3C1248,235,1344,213,1392,202.7L1440,192L1440,320L1392,320C1344,320,1248,320,1152,320C1056,320,960,320,864,320C768,320,672,320,576,320C480,320,384,320,288,320C192,320,96,320,48,320L0,320Z;
        
        M0,192L48,181.3C96,171,192,149,288,149.3C384,149,480,171,576,197.3C672,224,768,256,864,240C960,224,1056,160,1152,138.7C1248,117,1344,139,1392,149.3L1440,160L1440,320L1392,320C1344,320,1248,320,1152,320C1056,320,960,320,864,320C768,320,672,320,576,320C480,320,384,320,288,320C192,320,96,320,48,320L0,320Z"
    />
  </path>
  
  <path fill-opacity="0.4" fill="#FFFFFF" d="M0,224L48,234.7C96,245,192,267,288,261.3C384,256,480,224,576,213.3C672,203,768,213,864,224C960,235,1056,245,1152,234.7C1248,224,1344,192,1392,176L1440,160L1440,320L1392,320C1344,320,1248,320,1152,320C1056,320,960,320,864,320C768,320,672,320,576,320C480,320,384,320,288,320C192,320,96,320,48,320L0,320Z">
    <animate 
      attributeName="d" 
      dur="15s"
      repeatCount="indefinite"
      values="
        M0,224L48,234.7C96,245,192,267,288,261.3C384,256,480,224,576,213.3C672,203,768,213,864,224C960,235,1056,245,1152,234.7C1248,224,1344,192,1392,176L1440,160L1440,320L1392,320C1344,320,1248,320,1152,320C1056,320,960,320,864,320C768,320,672,320,576,320C480,320,384,320,288,320C192,320,96,320,48,320L0,320Z;
        
        M0,256L48,245.3C96,235,192,213,288,218.7C384,224,480,256,576,266.7C672,277,768,267,864,256C960,245,1056,235,1152,245.3C1248,256,1344,288,1392,304L1440,320L1440,320L1392,320C1344,320,1248,320,1152,320C1056,320,960,320,864,320C768,320,672,320,576,320C480,320,384,320,288,320C192,320,96,320,48,320L0,320Z;
        
        M0,224L48,234.7C96,245,192,267,288,261.3C384,256,480,224,576,213.3C672,203,768,213,864,224C960,235,1056,245,1152,234.7C1248,224,1344,192,1392,176L1440,160L1440,320L1392,320C1344,320,1248,320,1152,320C1056,320,960,320,864,320C768,320,672,320,576,320C480,320,384,320,288,320C192,320,96,320,48,320L0,320Z"
    />
  </path>
  
  <path fill-opacity="0.6" fill="#FFFFFF" d="M0,288L48,272C96,256,192,224,288,224C384,224,480,256,576,245.3C672,235,768,181,864,176C960,171,1056,213,1152,240C1248,267,1344,277,1392,282.7L1440,288L1440,320L1392,320C1344,320,1248,320,1152,320C1056,320,960,320,864,320C768,320,672,320,576,320C480,320,384,320,288,320C192,320,96,320,48,320L0,320Z">
    <animate 
      attributeName="d" 
      dur="20s"
      repeatCount="indefinite"
      values="
        M0,288L48,272C96,256,192,224,288,224C384,224,480,256,576,245.3C672,235,768,181,864,176C960,171,1056,213,1152,240C1248,267,1344,277,1392,282.7L1440,288L1440,320L1392,320C1344,320,1248,320,1152,320C1056,320,960,320,864,320C768,320,672,320,576,320C480,320,384,320,288,320C192,320,96,320,48,320L0,320Z;
        
        M0,288L48,304C96,320,192,352,288,352C384,352,480,320,576,330.7C672,341,768,395,864,400C960,405,1056,363,1152,336C1248,309,1344,299,1392,293.3L1440,288L1440,320L1392,320C1344,320,1248,320,1152,320C1056,320,960,320,864,320C768,320,672,320,576,320C480,320,384,320,288,320C192,320,96,320,48,320L0,320Z;
        
        M0,288L48,272C96,256,192,224,288,224C384,224,480,256,576,245.3C672,235,768,181,864,176C960,171,1056,213,1152,240C1248,267,1344,277,1392,282.7L1440,288L1440,320L1392,320C1344,320,1248,320,1152,320C1056,320,960,320,864,320C768,320,672,320,576,320C480,320,384,320,288,320C192,320,96,320,48,320L0,320Z"
    />
  </path>
</svg>